<?xml version="1.0" standalone="no"?>
<!DOCTYPE svg PUBLIC "-//W3C//DTD SVG 20010904//EN"
 "http://www.w3.org/TR/2001/REC-SVG-20010904/DTD/svg10.dtd">
<svg version="1.0" xmlns="http://www.w3.org/2000/svg"
 width="512.000000pt" height="512.000000pt" viewBox="0 0 512.000000 512.000000"
 preserveAspectRatio="xMidYMid meet">

<g transform="translate(0.000000,512.000000) scale(0.100000,-0.100000)"
fill="#000000" stroke="none">
<path d="M903 5100 c-21 -13 -35 -31 -42 -57 -15 -53 -15 -4913 0 -4966 7 -26
21 -44 42 -57 31 -20 65 -20 1657 -20 1592 0 1626 0 1657 20 21 13 35 31 42
57 15 53 15 4913 0 4966 -7 26 -21 44 -42 57 -31 20 -65 20 -1657 20 -1592 0
-1626 0 -1657 -20z m3147 -509 l0 -319 -507 -5 c-575 -5 -570 -4 -733 -84 -90
-45 -106 -58 -302 -250 -215 -210 -266 -249 -377 -283 -59 -19 -92 -20 -562
-20 l-499 0 0 640 0 640 1490 0 1490 0 0 -319z m-420 -2461 l0 -1920 -1280 0
-1280 0 0 1599 0 1599 508 5 c572 4 563 3 731 84 89 42 102 53 301 248 215
210 261 245 370 282 61 21 82 22 358 23 l292 0 0 -1920z m420 1710 l0 -210
-105 0 -105 0 0 210 0 210 105 0 105 0 0 -210z m0 -1710 l0 -1280 -105 0 -105
0 0 1280 0 1280 105 0 105 0 0 -1280z m0 -1705 l0 -215 -105 0 -105 0 0 215 0
215 105 0 105 0 0 -215z"/>
<path d="M1579 4671 c-154 -49 -263 -177 -291 -340 -47 -277 206 -530 483
-483 260 45 416 295 339 544 -69 225 -308 350 -531 279z m216 -210 c84 -38
132 -123 122 -218 -7 -68 -38 -118 -95 -154 -92 -58 -186 -47 -263 30 -73 72
-86 158 -39 251 48 95 175 137 275 91z"/>
<path d="M2401 4676 c-54 -30 -67 -106 -25 -155 48 -58 135 -47 170 20 46 89
-57 184 -145 135z"/>
<path d="M2809 4661 c-57 -57 -31 -158 45 -177 36 -9 73 3 102 31 18 19 24 35
24 70 0 64 -39 105 -100 105 -33 0 -48 -6 -71 -29z"/>
<path d="M3241 4664 c-38 -32 -49 -80 -27 -123 35 -67 122 -78 170 -20 81 96
-47 224 -143 143z"/>
<path d="M1352 2338 c-20 -6 -40 -21 -53 -41 -18 -30 -19 -47 -17 -280 l3
-249 33 -29 c36 -32 77 -38 120 -15 45 24 251 239 260 271 16 55 -2 85 -130
213 -129 128 -158 145 -216 130z"/>
<path d="M1978 624 c-65 -35 -73 -121 -17 -168 l31 -26 568 0 568 0 31 26 c57
48 47 135 -19 169 -43 22 -1121 22 -1162 -1z"/>
</g>
</svg>
