<?xml version="1.0" standalone="no"?>
<!DOCTYPE svg PUBLIC "-//W3C//DTD SVG 20010904//EN"
 "http://www.w3.org/TR/2001/REC-SVG-20010904/DTD/svg10.dtd">
<svg version="1.0" xmlns="http://www.w3.org/2000/svg"
 width="512.000000pt" height="512.000000pt" viewBox="0 0 512.000000 512.000000"
 preserveAspectRatio="xMidYMid meet">

<g transform="translate(0.000000,512.000000) scale(0.100000,-0.100000)"
fill="#000000" stroke="none">
<path d="M2365 5113 c-401 -34 -822 -171 -1145 -373 -325 -203 -637 -515 -840
-840 -179 -286 -309 -655 -362 -1025 -17 -118 -17 -512 0 -630 42 -295 120
-553 242 -800 137 -280 272 -468 494 -691 218 -217 408 -355 677 -488 544
-271 1162 -336 1759 -186 255 64 559 198 775 342 365 243 667 578 866 963 181
348 271 694 286 1090 15 426 -73 832 -263 1214 -124 250 -263 447 -458 648
-216 224 -428 378 -711 518 -296 146 -572 225 -900 255 -102 9 -327 11 -420 3z
m535 -188 c530 -80 1010 -327 1377 -709 396 -412 622 -919 667 -1498 l5 -68
-684 0 -684 0 -6 48 c-4 26 -17 86 -30 134 -97 348 -352 604 -711 715 -83 25
-101 27 -274 27 -173 0 -191 -2 -273 -27 -187 -58 -317 -135 -448 -266 -92
-91 -162 -191 -210 -297 -33 -72 -74 -214 -84 -286 l-6 -48 -684 0 -684 0 5
68 c45 580 271 1086 667 1498 395 411 916 664 1492 723 123 13 437 5 565 -14z
m-170 -1529 c94 -20 215 -69 289 -118 194 -127 339 -342 380 -563 14 -75 14
-235 0 -310 -52 -280 -261 -535 -524 -636 -127 -49 -202 -62 -350 -56 -113 4
-143 8 -227 37 -246 82 -451 278 -536 512 -40 111 -52 181 -52 302 0 118 16
200 59 311 99 256 341 460 616 520 80 18 264 18 345 1z m-1185 -973 c10 -73
51 -215 84 -287 48 -106 118 -206 210 -297 131 -131 261 -208 448 -266 82 -25
100 -27 273 -27 173 0 191 2 273 27 187 58 317 135 448 266 92 91 162 191 210
297 33 72 74 214 84 287 l6 47 685 0 684 0 -6 -57 c-16 -171 -27 -248 -46
-338 -185 -896 -881 -1617 -1769 -1834 -213 -52 -331 -65 -569 -65 -243 0
-369 15 -585 69 -428 108 -825 339 -1133 660 -395 411 -621 918 -666 1498 l-5
67 684 0 684 0 6 -47z"/>
<path d="M2392 3220 c-251 -67 -430 -249 -494 -501 -16 -67 -20 -103 -16 -188
13 -286 185 -518 457 -615 80 -29 96 -31 221 -31 125 0 141 2 221 31 205 73
353 222 426 429 25 72 28 93 28 215 0 122 -3 143 -28 215 -73 207 -227 362
-427 429 -115 39 -279 46 -388 16z m291 -165 c228 -59 387 -263 387 -495 0
-329 -318 -577 -635 -495 -382 100 -514 577 -236 856 124 124 317 178 484 134z"/>
</g>
</svg>
